<?xml version="1.0" encoding="utf-8"?>
<!-- Generator: Adobe Illustrator 22.1.0, SVG Export Plug-In . SVG Version: 6.00 Build 0)  -->
<svg version="1.1" id="Layer_1" xmlns="http://www.w3.org/2000/svg" xmlns:xlink="http://www.w3.org/1999/xlink" x="0px" y="0px"
	 viewBox="0 0 72.5 72.5" style="enable-background:new 0 0 72.5 72.5;" xml:space="preserve">
<style type="text/css">
	.st0{opacity:0.5;}
	.st1{fill:none;stroke:#FFFFFF;stroke-width:5.4279;stroke-linecap:round;stroke-linejoin:round;}
	.st2{fill:none;stroke:#FFFFFF;stroke-width:3.2567;stroke-linecap:round;stroke-linejoin:round;}
	.st3{fill:#FFFFFF;}
</style>
<circle class="st0" cx="36.2" cy="36.2" r="36.2"/>
<g id="_x2F_firefox_x2F_whatsnew77">
	<g id="wnp77-PiP-focused---FINAL" transform="translate(-627.000000, -277.000000)">
		<g id="Group-4" transform="translate(627.000000, 277.195891)">
			<g id="Group" transform="translate(10.756098, 10.265146)">
				<g id="Group-28">
					<g id="Group-22">
						<path id="Stroke-16" class="st1" d="M17.4,43.6H8.7c-2.2,0-4.1-1.8-4.1-4.1v-28c0-2.2,1.8-4.1,4.1-4.1h33.9
							c2.2,0,4.1,1.8,4.1,4.1v8.7"/>
						<line id="Stroke-18" class="st2" x1="12.4" y1="15.2" x2="21.1" y2="23.9"/>
						<polyline id="Stroke-20" class="st2" points="21.4,17.1 21.4,24.2 14.3,24.2 						"/>
					</g>
				</g>
				<g id="Screen-Shot-2020-05-05-at-8.56.34-AM" transform="translate(20.682053, 20.839351)">
					<g id="Mask">
						<path id="path-1_1_" class="st3" d="M7.6,7.5h18.3c1.7,0,3.1,1.4,3.1,3.1v11.8c0,1.7-1.4,3.1-3.1,3.1H7.6
							c-1.7,0-3.1-1.4-3.1-3.1V10.6C4.5,8.9,5.9,7.5,7.6,7.5z"/>
					</g>
				</g>
			</g>
		</g>
	</g>
</g>
</svg>
