<?xml version="1.0" encoding="utf-8"?>
<!-- Generator: Adobe Illustrator 22.1.0, SVG Export Plug-In . SVG Version: 6.00 Build 0)  -->
<svg version="1.1" xmlns="http://www.w3.org/2000/svg" xmlns:xlink="http://www.w3.org/1999/xlink" x="0px" y="0px"
	 viewBox="0 0 152 134" style="enable-background:new 0 0 152 134;" xml:space="preserve">
<style type="text/css">
	.st0{fill:#80808E;}
	.st1{fill:#EEEEF1;}
	.st2{fill:#9F9FAD;}
	.st3{fill:#D8D8D8;}
	.st4{display:none;}
	.st5{display:inline;fill:none;stroke:#D0D0D0;stroke-width:2.1192;stroke-linecap:round;stroke-linejoin:round;}
	.st6{display:inline;fill:#D8D8D8;}
	.st7{display:inline;fill:#028FED;}
	.st8{display:inline;fill:#ECF0F1;}
	.st9{display:inline;fill:#3FE1B0;}
	.st10{display:inline;fill:#15C4A2;}
	.st11{display:inline;fill:#F3D55B;}
	.st12{display:inline;fill:#FFA266;}
	.st13{display:inline;fill:#591DCE;}
	.st14{display:inline;fill:#7542E5;}
	.st15{fill:#028FED;}
	.st16{fill:#CECED7;}
	.st17{fill:#FFEA80;}
	.st18{fill:#FFD567;}
	.st19{fill:#FFA266;}
	.st20{fill:#FFAC3A;}
	.st21{fill:#591DCE;}
	.st22{fill:none;stroke:#999990;stroke-width:1.5;stroke-linecap:round;}
	.st23{display:inline;fill:#BEBEC8;}
	.st24{display:inline;fill:#DFDFE5;}
	.st25{display:inline;fill:#FFAC3A;}
	.st26{display:inline;fill:#CECED7;}
	.st27{display:inline;opacity:0.99;fill:none;stroke:#D0D0D0;stroke-width:2.1192;stroke-linecap:round;stroke-linejoin:round;enable-background:new    ;}
</style>
<g id="browser">
	<path id="window" class="st0" d="M142.3,1.3H3.4C2.5,1.3,1.7,2,1.7,2.9v105.6c0,0.9,0.7,1.7,1.7,1.7h138.9c0.9,0,1.7-0.7,1.7-1.7
		V2.9C144,2,143.2,1.3,142.3,1.3z"/>
	<path id="viewport" class="st1" d="M1.7,25.2v83.3c0,0.9,0.7,1.7,1.7,1.7h138.9c0.9,0,1.7-0.7,1.7-1.7V25.2H1.7z"/>
	<polygon id="toolbar" class="st2" points="37.8,9.6 37.8,3.5 15.1,3.5 15.1,9.6 1.7,9.6 1.7,25.2 143.9,25.2 143.9,9.6 	"/>
	<rect id="awesomebar" x="26.5" y="13.9" class="st3" width="109.4" height="6.7"/>
</g>
<g id="entertain">
	<g>
		<rect x="30.7" y="57" class="st3" width="12.4" height="27.1"/>
		<rect x="82.8" y="35.1" class="st3" width="12.4" height="48.9"/>
		<rect x="65.4" y="51.3" class="st3" width="12.4" height="32.8"/>
		<rect x="48.1" y="40.3" class="st3" width="12.4" height="43.7"/>
		<rect x="100.2" y="40.3" class="st3" width="12.4" height="43.7"/>
	</g>
	<path id="Rectangle_3_" class="st15" d="M70.5,64.7H150c0.9,0,1.7,0.7,1.7,1.7v50c0,0.9-0.7,1.7-1.7,1.7H70.5
		c-0.9,0-1.7-0.7-1.7-1.7v-50C68.9,65.4,69.6,64.7,70.5,64.7z"/>
	<path class="st16" d="M130.4,122.5H90.6c-1.1,0-2-0.9-2-2v-27h43.8v27C132.4,121.6,131.5,122.5,130.4,122.5z"/>
	<path id="Path" class="st17" d="M146.7,85.8c0-0.2-0.1-0.3-0.3-0.4c-0.7-0.1-2.8-0.6-3.4-1.3s-1.2-2.7-1.3-3.4
		c0-0.2-0.2-0.3-0.4-0.3v5.4H146.7z"/>
	<path id="Path_1_" class="st18" d="M141.3,80.4L141.3,80.4c-0.2,0-0.3,0.1-0.4,0.3c-0.1,0.7-0.6,2.8-1.3,3.4s-2.7,1.2-3.5,1.3
		c-0.2,0-0.3,0.2-0.3,0.4h5.4V80.4z"/>
	<path id="Path_2_" class="st18" d="M141.3,85.8v5.4c0.2,0,0.3-0.1,0.4-0.3c0.1-0.7,0.6-2.8,1.3-3.5s2.7-1.1,3.4-1.3
		c0.2,0,0.3-0.2,0.3-0.4H141.3z"/>
	<path id="Path_3_" class="st19" d="M135.9,85.8L135.9,85.8c0,0.2,0.1,0.3,0.3,0.4c0.7,0.1,2.8,0.6,3.5,1.3s1.1,2.7,1.3,3.5
		c0,0.2,0.2,0.3,0.4,0.3l0,0v-5.4H135.9z"/>
	<path id="Path_4_" class="st17" d="M89.6,76.2c0-0.3-0.2-0.5-0.5-0.5C88,75.5,85,74.8,84,73.7s-1.8-4.1-1.9-5.1
		c0-0.3-0.3-0.5-0.5-0.5v8.1H89.6z"/>
	<path id="Path_5_" class="st18" d="M81.5,68.1L81.5,68.1c-0.3,0-0.5,0.2-0.5,0.5c-0.2,1.1-0.9,4.1-1.9,5.1c-1,1-4.1,1.8-5.2,1.9
		c-0.3,0-0.5,0.3-0.5,0.5h8.1V68.1z"/>
	<path id="Path_6_" class="st18" d="M81.5,76.2v8.1c0.3,0,0.5-0.2,0.5-0.5c0.2-1.1,0.9-4.2,1.9-5.2c1-1,4.1-1.7,5.1-1.9
		c0.3,0,0.5-0.3,0.5-0.5H81.5z"/>
	<path id="Path_7_" class="st19" d="M73.4,76.2L73.4,76.2c0,0.3,0.2,0.5,0.5,0.5c1.1,0.2,4.2,0.9,5.2,1.9c1,1,1.7,4.1,1.9,5.2
		c0,0.3,0.3,0.5,0.5,0.5l0,0v-8.1H73.4z"/>
	<polygon id="Fill-4" class="st20" points="88.6,100 132.3,100 132.3,93.5 88.6,93.5 	"/>
	<polygon id="Fill-5" class="st21" points="106.3,93.5 101.5,100 107.8,100 112.6,93.5 	"/>
	<polygon id="Fill-6" class="st21" points="93.5,93.5 88.7,100 94.9,100 99.7,93.5 	"/>
	<polygon id="Fill-7" class="st21" points="119.4,93.5 114.6,100 120.8,100 125.6,93.5 	"/>
	<polygon id="Fill-8" class="st21" points="127.7,100 132.3,100 132.3,93.7 	"/>
	<polygon id="Fill-9" class="st20" points="88.6,93.5 130.7,81.6 128.9,75.4 86.8,87.3 	"/>
	<polygon id="Fill-10" class="st21" points="111.9,80.2 118.2,85.1 124.2,83.4 117.8,78.5 	"/>
	<polygon id="Fill-11" class="st21" points="124.2,76.7 130.6,81.6 130.7,81.6 128.9,75.4 	"/>
	<polygon id="Fill-12" class="st21" points="99.3,83.8 105.7,88.7 111.6,87 105.3,82.1 	"/>
	<polygon id="Fill-13" class="st21" points="86.8,87.3 86.9,87.4 93.1,92.2 99.1,90.5 92.7,85.6 	"/>
	<line id="Stroke-14" class="st22" x1="92.8" y1="107.6" x2="128.2" y2="107.6"/>
	<line id="Stroke-15" class="st22" x1="92.8" y1="113" x2="128.2" y2="113"/>
</g>
</svg>
