<?xml version="1.0" encoding="utf-8"?>
<!-- Generator: Adobe Illustrator 22.1.0, SVG Export Plug-In . SVG Version: 6.00 Build 0)  -->
<svg version="1.1" xmlns="http://www.w3.org/2000/svg" xmlns:xlink="http://www.w3.org/1999/xlink" x="0px" y="0px"
	 viewBox="0 0 152 134" style="enable-background:new 0 0 152 134;" xml:space="preserve">
<style type="text/css">
	.st0{fill:#80808E;}
	.st1{fill:#EEEEF1;}
	.st2{fill:#9F9FAD;}
	.st3{fill:#D8D8D8;}
	.st4{display:none;}
	.st5{display:inline;fill:none;stroke:#D0D0D0;stroke-width:2.1192;stroke-linecap:round;stroke-linejoin:round;}
	.st6{display:inline;fill:#D8D8D8;}
	.st7{display:inline;fill:#028FED;}
	.st8{display:inline;fill:#ECF0F1;}
	.st9{display:inline;fill:#3FE1B0;}
	.st10{display:inline;fill:#15C4A2;}
	.st11{display:inline;fill:#F3D55B;}
	.st12{display:inline;fill:#FFA266;}
	.st13{display:inline;fill:#591DCE;}
	.st14{display:inline;fill:#7542E5;}
	.st15{display:inline;}
	.st16{display:inline;fill:#CECED7;}
	.st17{display:inline;fill:#FFEA80;}
	.st18{display:inline;fill:#FFD567;}
	.st19{display:inline;fill:#FFAC3A;}
	.st20{display:inline;fill:none;stroke:#999990;stroke-width:1.5;stroke-linecap:round;}
	.st21{fill:#028FED;}
	.st22{fill:#BEBEC8;}
	.st23{fill:#ECF0F1;}
	.st24{fill:#DFDFE5;}
	.st25{fill:#F3D55B;}
	.st26{fill:#FFAC3A;}
	.st27{fill:#7542E5;}
	.st28{fill:#CECED7;}
	.st29{opacity:0.99;fill:none;stroke:#D0D0D0;stroke-width:2.1192;stroke-linecap:round;stroke-linejoin:round;enable-background:new    ;}
	.st30{fill:none;stroke:#D0D0D0;stroke-width:2.1192;stroke-linecap:round;stroke-linejoin:round;}
</style>
<g id="browser">
	<path id="window" class="st0" d="M142.3,1.3H3.4C2.5,1.3,1.7,2,1.7,2.9v105.6c0,0.9,0.7,1.7,1.7,1.7h138.9c0.9,0,1.7-0.7,1.7-1.7
		V2.9C144,2,143.2,1.3,142.3,1.3z"/>
	<path id="viewport" class="st1" d="M1.7,25.2v83.3c0,0.9,0.7,1.7,1.7,1.7h138.9c0.9,0,1.7-0.7,1.7-1.7V25.2H1.7z"/>
	<polygon id="toolbar" class="st2" points="37.8,9.6 37.8,3.5 15.1,3.5 15.1,9.6 1.7,9.6 1.7,25.2 143.9,25.2 143.9,9.6 	"/>
	<rect id="awesomebar" x="26.5" y="13.9" class="st3" width="109.4" height="6.7"/>
</g>
<g id="lecture">
	<path id="Rectangle_1_" class="st21" d="M70.5,64.7H150c0.9,0,1.7,0.7,1.7,1.7v50c0,0.9-0.7,1.7-1.7,1.7H70.5
		c-0.9,0-1.7-0.7-1.7-1.7v-50C68.9,65.4,69.6,64.7,70.5,64.7z"/>
	<rect id="Rectangle_4_" x="82.3" y="76.1" class="st22" width="56.5" height="5.6"/>
	<rect id="Rectangle_5_" x="84.4" y="81.7" class="st23" width="52.4" height="40.7"/>
	<rect id="Rectangle-Copy" x="84.4" y="81.7" class="st24" width="52.4" height="3.5"/>
	<rect id="Rectangle_6_" x="90" y="105.6" class="st25" width="5.6" height="10.3"/>
	<rect id="Rectangle_7_" x="99.1" y="102.7" class="st26" width="5.6" height="13.2"/>
	<rect id="Rectangle_8_" x="107.8" y="95.8" class="st26" width="5.6" height="20"/>
	<rect id="Rectangle_9_" x="115.9" y="101" class="st25" width="5.6" height="15"/>
	<rect id="Rectangle_10_" x="125.1" y="88.3" class="st26" width="5.6" height="27.6"/>
	<path class="st27" d="M98.6,89.6c0-0.2-0.1-0.3-0.2-0.5c0,0,0,0,0-0.1c0,0,0,0-0.1,0c-0.1-0.1-0.3-0.2-0.5-0.2c0,0,0,0-0.1,0
		c0,0-0.1,0-0.1,0h-4.7c-0.5,0-0.9,0.3-0.9,0.8c0,0.4,0.4,0.8,0.9,0.8h2.8l-5.5,5.5c-0.4,0.4-0.4,1,0,1.4c0.2,0.2,0.4,0.3,0.7,0.3
		s0.5-0.1,0.7-0.3l5.5-5.5v2.8c0,0.5,0.3,0.9,0.8,0.9c0.4,0,0.8-0.4,0.8-0.9v-4.7C98.6,89.7,98.6,89.7,98.6,89.6
		C98.6,89.6,98.6,89.6,98.6,89.6z"/>
	<path id="Path_9_" class="st22" d="M138.4,123.4H82.3c-0.5,0-1-0.3-1-0.8s0.4-0.8,1-0.8h56.1c0.5,0,1,0.3,1,0.8
		S138.9,123.4,138.4,123.4z"/>
	<path id="Path_8_" class="st28" d="M110.6,126.5c-0.4,0-0.8-0.5-0.8-1v-3.1c0-0.6,0.3-1,0.8-1c0.4,0,0.8,0.5,0.8,1v3.1
		C111.3,126,111,126.5,110.6,126.5z"/>
	<path id="Shape" class="st22" d="M110.3,133.1c-2.2,0-4.1-1.8-4.1-4.1s1.8-4.1,4.1-4.1c2.2,0,4.1,1.8,4.1,4.1
		S112.6,133.1,110.3,133.1z M110.3,127c-1.1,0-2,0.9-2,2s0.9,2,2,2s2-0.9,2-2S111.4,127,110.3,127z"/>
	<line id="Line-4-Copy" class="st29" x1="17.3" y1="50.6" x2="126.9" y2="50.6"/>
	<line id="Line-4-Copy-2" class="st30" x1="17.3" y1="43.3" x2="126.9" y2="43.3"/>
	<line id="Line-4-Copy-3" class="st29" x1="17.3" y1="36" x2="126.9" y2="36"/>
	<line id="Line-4" class="st29" x1="17.3" y1="57.9" x2="74.3" y2="57.9"/>
</g>
</svg>
